<svg xmlns="http://www.w3.org/2000/svg" xmlns:xlink="http://www.w3.org/1999/xlink" viewBox="0 0 368.84 166.48"><defs><radialGradient id="Degradado_sin_nombre_18" cx="17313.26" cy="14648.38" r="36" gradientTransform="translate(14562.47 17591.86) rotate(-169.7)" gradientUnits="userSpaceOnUse"><stop offset="0" stop-color="#fff" stop-opacity="0"/><stop offset="1" stop-color="#fff" stop-opacity="0.12"/></radialGradient><radialGradient id="Degradado_sin_nombre_18-2" cx="-1110.75" cy="1806.27" r="36" gradientTransform="translate(1652.46 -1495.44) rotate(10.3)" xlink:href="#Degradado_sin_nombre_18"/><symbol id="Nuevo_símbolo" data-name="Nuevo símbolo" viewBox="0 0 368.84 166.48"><line x1="232.5" y1="48.41" x2="232.5" y2="48.4" style="fill:none;stroke:#000;stroke-miterlimit:10"/><line x1="232.54" y1="48.4" x2="232.5" y2="48.4" style="fill:none;stroke:#000;stroke-miterlimit:10"/><path d="M121.59,58.59A36,36,0,0,1,172.49,60a36.56,36.56,0,0,1,5.11,6.87,36,36,0,1,1-56-8.24Z" style="stroke:#000;stroke-miterlimit:10;fill:url(#Degradado_sin_nombre_18)"/><path d="M168.09,51.73,218.56,3.92c8.42-1,14.05,1.44,12.38,13.06L180.47,64.8A39.87,39.87,0,0,0,175,57.56,39.26,39.26,0,0,0,168.09,51.73Z" style="fill:#263542;stroke:#000;stroke-miterlimit:10"/><path d="M117.68,111.89a39.51,39.51,0,0,0,63-46.8,2.75,2.75,0,0,0-.17-.29A39.87,39.87,0,0,0,175,57.56a39.5,39.5,0,1,0-57.35,54.33Zm3.91-53.3A36,36,0,0,1,172.49,60a36.56,36.56,0,0,1,5.11,6.87,36,36,0,1,1-56-8.24Z" style="fill:#263542;stroke:#000;stroke-miterlimit:10"/><path d="M121.59,58.59A36,36,0,0,1,172.49,60a36.56,36.56,0,0,1,5.11,6.87,36,36,0,1,1-56-8.24Z" style="fill:none;stroke:#000;stroke-miterlimit:10"/><path d="M.68,11.25,0,10.66V6.39L.68,5.8q14.58.67,22.51.68,3,0,23.61-.68c4.43-.12,7.64-.17,9.63-.17q11.52,0,18.25,2.3A21.27,21.27,0,0,1,85.5,16.07a22.53,22.53,0,0,1,4.1,13.26q0,9.45-6.82,17.56T60.61,58.48A92,92,0,0,1,75.79,61a29.21,29.21,0,0,1,10.31,5A23.33,23.33,0,0,1,93,74.68a29,29,0,0,1,2.52,12.44,39.13,39.13,0,0,1-1.71,11.26,33.2,33.2,0,0,1-6.26,11.34,43.52,43.52,0,0,1-11,9.63,49.18,49.18,0,0,1-13.26,5.8,67.25,67.25,0,0,1-16.83,1.79q-2.06,0-12.28-.43-11.34-.26-12.28-.26-5.79,0-14.23.69l-.69-.69v-2.81l.69-.85c3.29-1.48,5.2-2.5,5.71-3.07s.92-5.6,1.23-15.09S15,87.69,15,82.69V51.41l-.08-19.36c0-4.2-.06-7.63-.17-10.27a51,51,0,0,0-.47-5.67,4.49,4.49,0,0,0-1-2.38,5.51,5.51,0,0,0-1.92-1.16,19.83,19.83,0,0,0-4.22-.81ZM31.29,56q4.26.35,9.63.34,17.64,0,24.55-6.31t6.91-17.3a21,21,0,0,0-2.65-10.87A16.84,16.84,0,0,0,61.42,15Q55.75,12.62,46,12.62a67.69,67.69,0,0,0-14,1.28q-.76,7.67-.76,26.76Zm.17,62.14a58.51,58.51,0,0,0,13.47,1.54q12.18,0,19.09-3.92A24.15,24.15,0,0,0,74.21,104.9a35,35,0,0,0,3.28-15.13q0-12.28-6.95-19.65T40.49,62.74c-2.55,0-5.62.12-9.2.34V92.15Z"/><path d="M304.91,0l1.62,1q-.94,9.81-.94,39.3v40A125.43,125.43,0,0,0,317,71.74q8.52-6.87,18-15.69t9.76-9.59q7.24.26,8.7.26c1.3,0,3.95-.09,7.93-.26l.76.77v3.32l-.68.77A23.19,23.19,0,0,0,355,52.43q-2.26.85-9.21,5.62T329.37,70.59l-8.27,6.73q4.51,5.3,15.82,16.58t18.28,17.52q7,6.22,9.12,7.12a11.5,11.5,0,0,0,4.52.89v3.67q-3.15.6-16.28,5.2-8.87-7.68-11.25-10.15L335,111.68l-7.5-7.59q-3.5-3.5-9.38-8.87L305.59,83.63V93.77q0,1.88.34,12.07a111.37,111.37,0,0,0,.72,11.89,5,5,0,0,0,1.15,2.47,3.57,3.57,0,0,0,1.88,1q1.11.21,9.21.73l.76.68v3.58l-.68.77q-10.65-.69-20.54-.69t-20.46.69l-.77-.77v-3.58l.77-.68c5.51-.35,8.62-.6,9.33-.77a3.92,3.92,0,0,0,1.88-1.07,4.55,4.55,0,0,0,1.11-2.47c.19-1.11.42-4.77.68-11s.38-10.92.38-14.1V48.34L291,30.26q-.25-9.45-.55-13.12t-.81-4.35a3.18,3.18,0,0,0-1.79-1c-.86-.22-4.3-.34-10.32-.34l-.77-.76V7.08l.69-.77Q293.74,4.43,304.91,0Z"/><path d="M261.5,109.34A36,36,0,0,1,210.6,108a36.61,36.61,0,0,1-5.11-6.86,36,36,0,1,1,56,8.23Z" style="stroke:#000;stroke-miterlimit:10;fill:url(#Degradado_sin_nombre_18-2)"/><path d="M215,116.2,164.53,164c-8.41,1-14-1.45-12.38-13.06l50.47-47.82A39.71,39.71,0,0,0,215,116.2Z" style="fill:#263542;stroke:#000;stroke-miterlimit:10"/><path d="M265.41,56a39.51,39.51,0,0,0-63,46.8c.05.1.12.21.17.3A39.71,39.71,0,0,0,215,116.2,39.51,39.51,0,0,0,265.41,56Zm-3.91,53.3A36,36,0,0,1,210.6,108a36.61,36.61,0,0,1-5.11-6.86,36,36,0,1,1,56,8.23Z" style="fill:#263542;stroke:#000;stroke-miterlimit:10"/><path d="M261.5,109.34A36,36,0,0,1,210.6,108a36.61,36.61,0,0,1-5.11-6.86,36,36,0,1,1,56,8.23Z" style="fill:none;stroke:#000;stroke-miterlimit:10"/><text transform="translate(210 159.18)" style="font-size:25.056169509887695px;font-family:PalatinoLinotype-Roman, Palatino Linotype">Search &amp; sa<tspan x="128.45" y="0" style="letter-spacing:-0.017090507632502017em">v</tspan><tspan x="142.18" y="0">e</tspan></text></symbol></defs><title>Recurso 1</title><g id="Capa_2" data-name="Capa 2"><g id="Capa_1-2" data-name="Capa 1"><use id="Nuevo_símbolo-3" data-name="Nuevo símbolo" width="368.84" height="166.48" xlink:href="#Nuevo_símbolo"/></g></g></svg>