<svg xmlns="http://www.w3.org/2000/svg" xmlns:xlink="http://www.w3.org/1999/xlink" viewBox="0 0 242 373.58"><defs><symbol id="Nuevo_símbolo_1" data-name="Nuevo símbolo 1" viewBox="0 0 242 373.58"><polygon points="232.21 299.04 0.5 337.45 0.54 39.01 232.25 0.59 232.21 299.04" style="fill:#39618e;stroke:#000;stroke-miterlimit:10"/><polygon points="223.21 289.75 11.75 326.02 11.79 44.29 223.25 8.02 223.21 289.75" style="fill:#eaeaea;stroke:#000;stroke-miterlimit:10"/><polygon points="227.71 296.75 16.25 327.02 16.29 45.29 227.75 15.02 227.71 296.75" style="fill:#eaeaea;stroke:#000;stroke-miterlimit:10"/><polygon points="233.34 322.92 21.88 328.85 21.91 47.13 233.38 41.19 233.34 322.92" style="fill:#eaeaea;stroke:#000;stroke-miterlimit:10"/><polygon points="237.84 331.12 26.38 330.65 26.41 48.93 237.88 49.39 237.84 331.12" style="fill:#eaeaea;stroke:#000;stroke-miterlimit:10"/><polygon points="238.96 345.56 27.5 328.2 27.54 46.48 239 63.84 238.96 345.56" style="fill:#eaeaea;stroke:#000;stroke-miterlimit:10"/><polygon points="12.44 348.21 0.72 338.2 1.88 39.87 11.92 46.44 12.44 348.21" style="fill:#39618e;stroke:#000;stroke-miterlimit:10"/><polygon points="241.5 373.02 11.88 347.74 11.41 46.53 241.02 71.81 241.5 373.02" style="fill:#39618e;stroke:#000;stroke-miterlimit:10"/><path d="M58,155.63l-.1-27.81,4.07.46,9.15,15.12A90.61,90.61,0,0,1,76.19,153l.12,0c-.35-3.76-.45-7.15-.46-11.48l0-11.64,3.47.4.1,27.81-3.73-.43-9.11-15.15a91.93,91.93,0,0,1-5.32-9.89l-.13,0c.22,3.54.28,6.88.29,11.51l0,11.88Z" style="fill:#f2f2f2"/><path d="M104.2,150.79c0,7.39-5.26,10-10.17,9.44a11.1,11.1,0,0,1-9.86-11.41c0-6.64,4.49-10,10.13-9.4C100.18,140.1,104.18,144.73,104.2,150.79ZM88,149.14c0,4.37,2.57,8,6.21,8.38s6.21-2.54,6.2-7c0-3.39-1.77-7.84-6.17-8.34S88,145.38,88,149.14Z" style="fill:#f2f2f2"/><path d="M61.71,177.76l.1,27.81-3.72-.43L58,177.33Z" style="fill:#f2f2f2"/><path d="M68.49,191.78c0-2.11-.09-3.77-.18-5.43l3.26.38.18,3.28h.12a6.24,6.24,0,0,1,6.47-2.93,7,7,0,0,1,5.77,4.66h.09a6.62,6.62,0,0,1,2.32-2.33,6.41,6.41,0,0,1,4.48-.89c2.75.32,6.78,2.51,6.81,9.45l0,11.72-3.64-.42,0-11.27c0-3.88-1.51-6.32-4.47-6.66a4.25,4.25,0,0,0-4.44,2.75A6.1,6.1,0,0,0,85,195.9l0,12.33-3.64-.41,0-12c0-3.18-1.46-5.61-4.29-5.94a4.42,4.42,0,0,0-4.61,3.1,4.7,4.7,0,0,0-.29,1.74l0,12-3.64-.42Z" style="fill:#f2f2f2"/><path d="M118.24,207.26a33.47,33.47,0,0,0,.31,4.82l-3.34-.38-.31-2.55-.13,0a6.82,6.82,0,0,1-6.25,2.26,6.66,6.66,0,0,1-6.29-6.46c0-4.83,4.38-7,12.3-6v-.42c0-1.61-.49-4.67-4.68-5.11a9.23,9.23,0,0,0-5.37.87l-.86-2.54a12.69,12.69,0,0,1,6.77-.95c6.27.72,7.81,5.06,7.82,9Zm-3.62-5.82c-4.06-.55-8.68-.37-8.66,3.5a3.7,3.7,0,0,0,3.48,3.87,4.51,4.51,0,0,0,5-2.76,4.06,4.06,0,0,0,.16-1.14Z" style="fill:#f2f2f2"/><path d="M141.79,211.82c0,4.62-.95,7.28-2.89,8.83s-4.9,1.83-7.49,1.53a14.86,14.86,0,0,1-6.82-2.43l.92-2.7a12.64,12.64,0,0,0,6,2.3c3.81.43,6.6-1.18,6.58-6.26V210.9H138c-1.1,1.73-3.34,3-6.51,2.6-5.08-.59-8.74-5.21-8.76-10.74,0-6.77,4.49-10.05,9.24-9.5a7.91,7.91,0,0,1,6.4,4.16h.09l.11-3,3.31.38c-.13,1.38-.16,3-.15,5.42ZM138,202.23a4.8,4.8,0,0,0-.22-1.63,6.16,6.16,0,0,0-5.22-4.48c-3.56-.41-6.09,2.23-6.07,6.85,0,3.92,2.1,7.42,6.08,7.88a4.65,4.65,0,0,0,5.15-3.12,6,6,0,0,0,.29-1.91Z" style="fill:#f2f2f2"/><path d="M150,206.37c.1,4.92,3.28,7.3,7.05,7.74a13.13,13.13,0,0,0,5.67-.38l.69,2.67a16.24,16.24,0,0,1-6.86.5c-6.3-.73-10.09-5.25-10.11-11.27S150,195.32,156,196c6.74.77,8.49,6.67,8.51,10.34a8.91,8.91,0,0,1-.12,1.68ZM160.89,205c0-2.27-1-6-5.18-6.45-3.81-.44-5.41,2.72-5.7,5.2Z" style="fill:#f2f2f2"/><path d="M57.82,250.24a14.28,14.28,0,0,0,6.57,2.57c3.77.43,6-1.26,6-4.06,0-2.56-1.54-4.26-5.4-6.11-4.66-2.19-7.55-4.91-7.56-8.79,0-4.33,3.65-7.13,9.2-6.49a14.32,14.32,0,0,1,6.27,2.08l-1,2.81a11.88,11.88,0,0,0-5.39-1.93c-3.89-.45-5.37,1.65-5.36,3.55,0,2.6,1.75,4.08,5.69,6,4.84,2.37,7.26,4.92,7.27,9,0,4.3-3.19,7.68-9.92,6.91a16.74,16.74,0,0,1-7.29-2.65Z" style="fill:#f2f2f2"/><path d="M97.82,249.05c0,7.39-5.26,10-10.17,9.44a11.1,11.1,0,0,1-9.86-11.41c0-6.64,4.49-10,10.13-9.39C93.8,238.36,97.8,243,97.82,249.05ZM81.6,247.4c0,4.37,2.57,8,6.21,8.38s6.21-2.54,6.2-7c0-3.39-1.77-7.84-6.17-8.34S81.59,243.64,81.6,247.4Z" style="fill:#f2f2f2"/><path d="M119.68,256.22c0,2.11.06,3.93.19,5.51l-3.3-.38-.22-3.28h-.09A6.74,6.74,0,0,1,109.5,261c-3.22-.37-7.08-2.58-7.1-9.56l0-11.68,3.72.43,0,11c0,3.8,1.25,6.54,4.6,6.92a4.65,4.65,0,0,0,4.9-2.78,4.59,4.59,0,0,0,.33-1.82l0-12.21,3.73.43Z" style="fill:#f2f2f2"/><path d="M125.83,248.68c0-2.35,0-4.38-.19-6.25l3.26.37.19,4,.12,0a5.35,5.35,0,0,1,5.7-3.72,7.37,7.37,0,0,1,1,.2v3.42a6.74,6.74,0,0,0-1.27-.23c-2.62-.3-4.48,1.39-5,4.05a11,11,0,0,0-.12,1.68l0,10.65-3.73-.43Z" style="fill:#f2f2f2"/><path d="M153.91,264.94a14.1,14.1,0,0,1-5.88.48,11.06,11.06,0,0,1-10.24-11.37c0-6.15,4.28-10.15,11-9.38a13.14,13.14,0,0,1,5.17,1.66l-.84,2.67a10.13,10.13,0,0,0-4.32-1.44c-4.7-.54-7.23,2.59-7.21,6.72a8,8,0,0,0,7.14,8.28,10.28,10.28,0,0,0,4.57-.42Z" style="fill:#f2f2f2"/><path d="M160.06,257c.11,4.92,3.29,7.31,7.06,7.74a13,13,0,0,0,5.67-.38l.68,2.68a16.42,16.42,0,0,1-6.85.49c-6.31-.73-10.09-5.24-10.11-11.27s3.6-10.31,9.57-9.63c6.73.78,8.49,6.67,8.5,10.34a8.84,8.84,0,0,1-.12,1.68ZM171,255.67c0-2.26-1-6-5.19-6.45-3.81-.44-5.41,2.72-5.69,5.2Z" style="fill:#f2f2f2"/></symbol></defs><title>noimage</title><g id="Capa_2" data-name="Capa 2"><g id="Capa_1-2" data-name="Capa 1"><use id="Nuevo_símbolo_1-3" data-name="Nuevo símbolo 1" width="242" height="373.58" xlink:href="#Nuevo_símbolo_1"/></g></g></svg>